<?xml version="1.0" standalone="no"?><!DOCTYPE svg PUBLIC "-//W3C//DTD SVG 1.1//EN" "http://www.w3.org/Graphics/SVG/1.1/DTD/svg11.dtd"><svg class="icon" width="25px" height="24.95px" viewBox="0 0 1026 1024" version="1.1" xmlns="http://www.w3.org/2000/svg"><path d="M624.243794 382.73868c-21.649994 0-37.67993 5.460397-50.229263 12.35774-2.011725-7.1528-8.621679-12.389672-16.413122-10.824997h-95.285518c-9.419983-1.564675-17.051765 6.067107-14.14594 15.966072v351.253586c-2.905825 8.941 4.725957 16.604715 14.14594 15.966073h95.285518c9.419983 0.638643 17.051765-7.025072 17.051765-16.445055l-0.031932-212.284894c-0.031932-0.095796-0.383186-10.250218 6.035175-17.243358 5.141075-5.556193 13.986279-8.398154 26.21629-8.398154 20.372708 0 29.441437 8.33429 32.826245 26.982662v210.943744c-3.352875 9.419983 4.278907 17.083697 13.69889 16.445055h100.426593c9.419983 0.638643 17.051765-7.025072 13.666958-16.445055v-218.03268c3.352875-110.868405-75.615317-150.240738-143.247599-150.240739zM736.740738 735.525009h-66.291131v-195.456654c0-37.711862-24.364226-61.086192-63.544967-61.086192-22.160908 0-39.404266 6.514157-51.283024 19.350879-16.508919 17.882001-15.231633 40.553823-11.687165 45.599102v191.592865h-64.566795v-318.682799h61.181988v10.729201a16.987901 16.987901 0 0 0 27.461644 13.507297l4.4705-3.448672c12.932518-10.186354 26.312087-20.755894 51.793938-20.755894 26.375951 0 112.496944 8.398154 112.496944 116.137209V735.525009zM352.341586 223.525009c-35.827866 0-64.949981 29.122116-64.949981 64.949982s29.122116 64.949981 64.949981 64.949981 64.949981-29.122116 64.949981-64.949981S388.169452 223.525009 352.341586 223.525009z m0 95.796433c-16.987901 0-30.846451-13.858551-30.846451-30.846451s13.858551-30.846451 30.846451-30.846452 30.846451 13.858551 30.846451 30.846452-13.858551 30.846451-30.846451 30.846451zM397.940688 382.706748H303.166084c-9.419983 0-17.051765 7.631782-14.688786 17.530747v351.253586c-2.362979 8.941 5.268804 16.604715 14.688786 15.966073h94.774604c9.419983 0.638643 17.051765-7.025072 17.051765-16.445055v-351.253586a17.051765 17.051765 0 0 0-17.051765-17.051765zM384.27373 735.525009H320.217849v-318.682799H384.27373V735.525009z" fill="#474e70" /><path d="M512.002307 0C229.658288 0 0.002307 229.655981 0.002307 512S229.658288 1024 512.002307 1024 1024.002307 794.344019 1024.002307 512 794.346326 0 512.002307 0z m0 989.89647C248.498253 989.89647 34.105837 775.504054 34.105837 512S248.498253 34.10353 512.002307 34.10353 989.898777 248.495946 989.898777 512 775.506361 989.89647 512.002307 989.89647z" fill="#474e70" /></svg>